<?xml version="1.0" encoding="UTF-8" standalone="no"?>
<!-- Created with Inkscape (http://www.inkscape.org/) -->

<svg
   width="41.778671mm"
   height="61.105331mm"
   viewBox="0 0 41.778671 61.105331"
   version="1.1"
   id="svg114"
   xml:space="preserve"
   xmlns="http://www.w3.org/2000/svg"
   xmlns:svg="http://www.w3.org/2000/svg"><defs
     id="defs111" /><g
     id="layer1"><path
       style="fill:#000000;stroke-width:0.0846667"
       d="m 0.46512324,60.945252 c -0.65949,-0.348239 -0.648148,-0.550025 0.230555,-4.10191 0.69011696,-2.789587 0.70427696,-2.847856 0.77135796,-3.174222 0.02384,-0.115989 0.116157,-0.473638 0.205149,-0.794774 0.08899,-0.321138 0.147398,-0.607238 0.129791,-0.635778 -0.03686,-0.05975 0.243387,-1.305605 0.611595,-2.718893 0.505473,-1.940147 1.3684251,-5.139495 1.5871681,-5.884333 0.12308,-0.4191 0.297719,-1.04775 0.388085,-1.397 0.342488,-1.323656 0.864294,-3.210839 1.1471069,-4.148667 0.161491,-0.535516 0.308191,-1.030816 0.326,-1.100666 0.125981,-0.494125 1.220264,-4.168596 1.752394,-5.884334 0.187753,-0.605366 0.434227,-1.405466 0.547721,-1.778 0.113494,-0.372533 0.455076,-1.458383 0.759072,-2.413 0.303997,-0.954616 0.622403,-1.964266 0.707571,-2.243666 0.198237,-0.650329 1.5558948,-4.880523 1.8341988,-5.715 0.116477,-0.34925 0.415949,-1.1303 0.665493,-1.735667 0.249544,-0.605367 0.986699,-2.434167 1.638124,-4.064 2.430988,-6.0822195 3.727153,-8.8765015 5.262682,-11.3453335 1.220999,-1.96312798 1.763799,-2.22576498 2.655787,-1.28501598 0.680898,0.71811898 1.356135,1.83378698 2.545613,4.20601598 1.408007,2.808051 3.611382,7.9719425 4.660296,10.9220005 0.17385,0.48895 0.386726,1.0414 0.473057,1.227666 0.08633,0.186267 0.232067,0.548217 0.323857,0.804334 0.09179,0.256116 0.285819,0.789516 0.431177,1.185333 0.145358,0.395817 0.420093,1.195917 0.610523,1.778 0.19043,0.582083 0.551275,1.667933 0.801877,2.413 0.579015,1.721467 0.957923,2.918529 1.808983,5.715 0.375553,1.234017 0.867593,2.834217 1.093423,3.556 0.225831,0.721783 0.621604,2.074333 0.879497,3.005667 0.257892,0.931333 0.781253,2.798233 1.163025,4.148666 0.709933,2.511242 0.986405,3.517429 1.640109,5.969 0.204878,0.76835 0.465238,1.7399 0.578578,2.159 0.837327,3.096226 0.883557,3.280525 1.03366,4.120697 0.02221,0.124317 0.09717,0.448167 0.166584,0.719667 0.06941,0.2715 0.350803,1.446136 0.625317,2.610303 0.274514,1.164167 0.68115,2.882578 0.903636,3.818691 0.222485,0.936113 0.380412,1.764845 0.350949,1.841625 -0.02946,0.07678 -0.183855,0.201731 -0.343094,0.277666 -0.361961,0.172607 -0.744665,0.110427 -1.220894,-0.198365 -0.437104,-0.283423 -0.73915,-0.880378 -2.30437,-4.554284 -2.27239,-5.33378 -4.181328,-9.37921 -6.072723,-12.869333 -1.061383,-1.95853 -1.046098,-1.933735 -1.878879,-3.048 -1.690889,-2.262416 -3.294599,-3.549459 -4.954112,-3.975876 -1.448477,-0.372191 -3.419119,0.408844 -5.679051,2.250808 -1.139992,0.929152 -3.421065,3.245979 -4.908371,4.985303 -0.417837,0.488637 -0.88093,1.021782 -1.029095,1.184765 -0.743412,0.817763 -1.195243,1.393424 -3.264565,4.159259 -1.2324568,1.647291 -2.6481968,3.604674 -3.1460878,4.349741 -0.49789,0.745067 -1.053051,1.564217 -1.233689,1.820333 -0.180639,0.256117 -1.0976459,1.633966 -2.0377939,3.061887 -1.6612371,2.52313 -1.7209171,2.601191 -2.1199091,2.772833 -0.503257,0.216495 -0.71178196,0.217029 -1.11737796,0.0029 z"
       id="path269" /></g></svg>
